{"title":"Point Blank(2010)MPEG-4[DaScubaDude]","uid":15478593,"size":919130684,"categoryP":"video","categoryS":"movies","magnet":"?xt=urn:btih:bbb9cffc6f7fcea61f849ae3fc79aa2c6b9e50d3&amp;dn=Point+Blank%282010%29MPEG-4%5BDaScubaDude%5D&amp;tr=udp%3A%2F%2Ftracker.leechers-paradise.org%3A6969&amp;tr=udp%3A%2F%2Fzer0day.ch%3A1337&amp;tr=udp%3A%2F%2Fopen.demonii.com%3A1337&amp;tr=udp%3A%2F%2Ftracker.coppersurfer.tk%3A6969&amp;tr=udp%3A%2F%2Fexodus.desync.com%3A6969","seeders":0,"leechers":1,"uploader":"dascuba","files":1,"time":1470218899,"description":"Point Blank (2010)\r\nÀ bout portant (original title)\r\nR | 1h 24min | Action, Crime, Drama | 1 December 2010 (France)\r\nSamuel Pierret (Gilles Lellouche) is a nurse who saves the wrong guy -- a thief (Roschdy Zem) whose henchmen take Samuel's pregnant wife (Elena Anaya) hostage to force him to spring their ... See full summary »\r\nDirector: Fred Cavayé\r\nWriters: Fred Cavayé (scenario), Guillaume Lemans (scenario)\r\nStars: Gilles Lellouche, Roschdy Zem, Gérard Lanvin |\r\n\r\nGeneral\r\nComplete name                            : WinXVideosPoint BlankPOINT_BLANK_Title2.mp4\r\nFormat                                   : MPEG-4\r\nFormat profile                           : Base Media\r\nCodec ID                                 : isom (isom/iso2/avc1/mp41)\r\nFile size                                : 877 MiB\r\nDuration                                 : 1h 24mn\r\nOverall bit rate                         : 1 456 Kbps\r\nMovie name                               : POINT_BLANK\r\nGenre                                    : Thriller\r\nWriting application                      : Lavf54.6.100\r\n\r\nVideo\r\nID                                       : 1\r\nFormat                                   : AVC\r\nFormat/Info                              : Advanced Video Codec\r\nFormat profile                           :   \r\nFormat settings, CABAC                   : No\r\nFormat settings, ReFrames                : 6 frames\r\nCodec ID                                 : avc1\r\nCodec ID/Info                            : Advanced Video Coding\r\nDuration                                 : 1h 24mn\r\nBit rate                                 : 1 184 Kbps\r\nWidth                                    : 720 pixels\r\nHeight                                   : 404 pixels\r\nDisplay aspect ratio                     : 16:9\r\nFrame rate mode                          : Constant\r\nFrame rate                               : 29.970 (30000/1001) fps\r\nColor space                              : YUV\r\nChroma subsampling                       : 4:2:0\r\nBit depth                                : 8 bits\r\nScan type                                : Progressive\r\nBits/(Pixel*Frame)                       : 0.136\r\nStream size                              : 713 MiB (81%)\r\n\r\nAudio\r\nID                                       : 2\r\nFormat                                   : AAC\r\nFormat/Info                              : Advanced Audio Codec\r\nFormat profile                           : LC\r\nCodec ID                                 : 40\r\nDuration                                 : 1h 24mn\r\nBit rate mode                            : Constant\r\nBit rate                                 : 265 Kbps\r\nChannel(s)                               : 2 channels\r\nChannel(s)_Original                      : 6 channels\r\nChannel positions                        : Front: L C R, Side: L R, LFE\r\nSampling rate                            : 44.1 KHz\r\nFrame rate                               : 43.066 fps (1024 spf)\r\nCompression mode                         : Lossy\r\nStream size                              : 160 MiB (18%)\r\nDefault                                  : Yes\r\nAlternate group                          : 1","torrent":{"xt":"urn:btih:bbb9cffc6f7fcea61f849ae3fc79aa2c6b9e50d3","amp;dn":"Point+Blank%282010%29MPEG-4%5BDaScubaDude%5D","amp;tr":["udp%3A%2F%2Ftracker.leechers-paradise.org%3A6969","udp%3A%2F%2Fzer0day.ch%3A1337","udp%3A%2F%2Fopen.demonii.com%3A1337","udp%3A%2F%2Ftracker.coppersurfer.tk%3A6969","udp%3A%2F%2Fexodus.desync.com%3A6969"],"infoHash":"bbb9cffc6f7fcea61f849ae3fc79aa2c6b9e50d3","infoHashBuffer":{"type":"Buffer","data":[187,185,207,252,111,127,206,166,31,132,154,227,252,121,170,44,107,158,80,211]},"announce":[],"urlList":[]}}